<svg xmlns="http://www.w3.org/2000/svg" xmlns:xlink="http://www.w3.org/1999/xlink" width="524" zoomAndPan="magnify" viewBox="0 0 392.88 225.75" height="301" preserveAspectRatio="xMidYMid meet" version="1.0"><defs><g/><clipPath id="14d6806530"><path d="M 0.15625 0 L 392.601562 0 L 392.601562 225.5 L 0.15625 225.5 Z M 0.15625 0 " clip-rule="nonzero"/></clipPath><clipPath id="d6035c5a4f"><path d="M 0.15625 56.117188 L 190.320312 56.117188 L 190.320312 225.148438 L 0.15625 225.148438 Z M 0.15625 56.117188 " clip-rule="nonzero"/></clipPath><clipPath id="4d3fd42029"><path d="M 26.378906 56.117188 L 164.046875 56.117188 C 178.527344 56.117188 190.269531 67.855469 190.269531 82.335938 L 190.269531 198.929688 C 190.269531 213.410156 178.527344 225.148438 164.046875 225.148438 L 26.378906 225.148438 C 11.898438 225.148438 0.15625 213.410156 0.15625 198.929688 L 0.15625 82.335938 C 0.15625 67.855469 11.898438 56.117188 26.378906 56.117188 Z M 26.378906 56.117188 " clip-rule="nonzero"/></clipPath><clipPath id="30e4421687"><path d="M 0.15625 0.117188 L 190.320312 0.117188 L 190.320312 169.148438 L 0.15625 169.148438 Z M 0.15625 0.117188 " clip-rule="nonzero"/></clipPath><clipPath id="eb6bd0a500"><path d="M 26.378906 0.117188 L 164.046875 0.117188 C 178.527344 0.117188 190.269531 11.855469 190.269531 26.335938 L 190.269531 142.929688 C 190.269531 157.410156 178.527344 169.148438 164.046875 169.148438 L 26.378906 169.148438 C 11.898438 169.148438 0.15625 157.410156 0.15625 142.929688 L 0.15625 26.335938 C 0.15625 11.855469 11.898438 0.117188 26.378906 0.117188 Z M 26.378906 0.117188 " clip-rule="nonzero"/></clipPath><clipPath id="72b5a112a4"><rect x="0" width="191" y="0" height="170"/></clipPath><clipPath id="d5517ed6bb"><path d="M 219 66 L 392.285156 66 L 392.285156 198.34375 L 219 198.34375 Z M 219 66 " clip-rule="nonzero"/></clipPath><clipPath id="067d42ad10"><path d="M 132.742188 0 L 306 0 L 306 133 L 132.742188 133 Z M 132.742188 0 " clip-rule="nonzero"/></clipPath><clipPath id="c413423cea"><rect x="0" width="82" y="0" height="43"/></clipPath><clipPath id="923b909691"><path d="M 44.867188 88 L 145.738281 88 L 145.738281 193 L 44.867188 193 Z M 44.867188 88 " clip-rule="nonzero"/></clipPath><clipPath id="c6054a19d4"><rect x="0" width="393" y="0" height="226"/></clipPath></defs><g clip-path="url(#14d6806530)"><path fill="#ffffff" d="M 0.15625 0 L 392.722656 0 L 392.722656 225.5 L 0.15625 225.5 Z M 0.15625 0 " fill-opacity="1" fill-rule="nonzero"/><g transform="matrix(1, 0, 0, 1, -0.000000000000000028, 0.000000000000001256)"><g clip-path="url(#c6054a19d4)"><g clip-path="url(#d6035c5a4f)"><g clip-path="url(#4d3fd42029)"><g transform="matrix(1, 0, 0, 1, -0.000000000000000028, 56)"><g clip-path="url(#72b5a112a4)"><g clip-path="url(#30e4421687)"><g clip-path="url(#eb6bd0a500)"><path fill="#000041" d="M 0.15625 0.117188 L 190.320312 0.117188 L 190.320312 169.148438 L 0.15625 169.148438 Z M 0.15625 0.117188 " fill-opacity="1" fill-rule="nonzero"/></g></g></g></g></g></g><g clip-path="url(#d5517ed6bb)"><path fill="#ffffff" d="M 247.371094 66.066406 L 364.152344 66.066406 C 379.683594 66.066406 392.273438 78.65625 392.273438 94.183594 L 392.273438 142.152344 C 392.273438 156.976562 380.796875 169.117188 366.246094 170.1875 C 366.246094 181.359375 366.246094 198.140625 366.246094 198.140625 L 346.636719 170.277344 L 247.371094 170.277344 C 231.84375 170.277344 219.253906 157.6875 219.253906 142.15625 L 219.253906 94.191406 C 219.253906 78.65625 231.84375 66.066406 247.371094 66.066406 Z M 247.371094 66.066406 " fill-opacity="1" fill-rule="nonzero"/></g><g clip-path="url(#067d42ad10)"><path fill="#ff6c00" d="M 305.761719 28.148438 L 305.761719 76.117188 C 305.761719 91.648438 293.175781 104.234375 277.644531 104.234375 L 178.378906 104.234375 L 158.765625 132.097656 C 158.765625 132.097656 158.765625 115.316406 158.765625 104.144531 C 144.21875 103.082031 132.742188 90.945312 132.742188 76.117188 L 132.742188 28.148438 C 132.742188 12.617188 145.328125 0.03125 160.859375 0.03125 L 277.640625 0.03125 C 293.175781 0.03125 305.761719 12.617188 305.761719 28.148438 Z M 305.761719 28.148438 " fill-opacity="1" fill-rule="nonzero"/></g><g transform="matrix(1, 0, 0, 1, 174, 29)"><g clip-path="url(#c413423cea)"><g fill="#ffffff" fill-opacity="1"><g transform="translate(1.20009, 33.499144)"><g><path d="M 28.546875 -3.828125 C 28.546875 -2.648438 28.128906 -1.644531 27.296875 -0.8125 C 26.472656 0.0078125 25.472656 0.421875 24.296875 0.421875 C 23.367188 0.421875 22.519531 0.132812 21.75 -0.4375 C 20.976562 -1.019531 20.46875 -1.742188 20.21875 -2.609375 L 19.75 -4.125 L 9.3125 -4.125 L 8.84375 -2.609375 C 8.59375 -1.742188 8.078125 -1.019531 7.296875 -0.4375 C 6.523438 0.132812 5.679688 0.421875 4.765625 0.421875 C 3.578125 0.421875 2.566406 0.0078125 1.734375 -0.8125 C 0.910156 -1.644531 0.5 -2.648438 0.5 -3.828125 C 0.5 -4.359375 0.585938 -4.851562 0.765625 -5.3125 L 7.53125 -23.671875 C 8.070312 -25.097656 8.976562 -26.257812 10.25 -27.15625 C 11.53125 -28.0625 12.957031 -28.515625 14.53125 -28.515625 C 16.101562 -28.515625 17.523438 -28.0625 18.796875 -27.15625 C 20.078125 -26.257812 20.984375 -25.097656 21.515625 -23.671875 L 28.296875 -5.3125 C 28.460938 -4.851562 28.546875 -4.359375 28.546875 -3.828125 Z M 11.53125 -11.203125 L 17.515625 -11.203125 L 14.53125 -20.59375 Z M 11.53125 -11.203125 "/></g></g></g><g fill="#ffffff" fill-opacity="1"><g transform="translate(30.244039, 33.499144)"><g><path d="M 24.34375 -10.1875 C 24.34375 -6.84375 23.515625 -4.222656 21.859375 -2.328125 C 20.203125 -0.441406 18.050781 0.5 15.40625 0.5 C 13.164062 0.5 11.257812 -0.378906 9.6875 -2.140625 L 9.6875 4.375 C 9.6875 5.414062 9.3125 6.304688 8.5625 7.046875 C 7.820312 7.796875 6.929688 8.171875 5.890625 8.171875 C 4.859375 8.171875 3.96875 7.796875 3.21875 7.046875 C 2.476562 6.304688 2.109375 5.414062 2.109375 4.375 L 2.109375 -16.96875 C 2.109375 -18.09375 2.460938 -19.039062 3.171875 -19.8125 C 3.890625 -20.582031 4.796875 -20.96875 5.890625 -20.96875 C 6.765625 -20.96875 7.550781 -20.707031 8.25 -20.1875 C 8.957031 -19.664062 9.4375 -19 9.6875 -18.1875 C 11.144531 -19.957031 13.050781 -20.84375 15.40625 -20.84375 C 18.050781 -20.84375 20.203125 -19.894531 21.859375 -18 C 23.515625 -16.101562 24.34375 -13.5 24.34375 -10.1875 Z M 16.59375 -10.1875 C 16.59375 -11.363281 16.234375 -12.316406 15.515625 -13.046875 C 14.796875 -13.785156 13.890625 -14.15625 12.796875 -14.15625 C 12.265625 -14.15625 11.695312 -14.023438 11.09375 -13.765625 C 10.488281 -13.515625 10.019531 -13.179688 9.6875 -12.765625 L 9.6875 -7.578125 C 9.988281 -7.179688 10.445312 -6.847656 11.0625 -6.578125 C 11.6875 -6.316406 12.265625 -6.1875 12.796875 -6.1875 C 13.890625 -6.1875 14.796875 -6.550781 15.515625 -7.28125 C 16.234375 -8.007812 16.59375 -8.976562 16.59375 -10.1875 Z M 16.59375 -10.1875 "/></g></g></g><g fill="#ffffff" fill-opacity="1"><g transform="translate(55.289174, 33.499144)"><g><path d="M 24.34375 -10.1875 C 24.34375 -6.84375 23.515625 -4.222656 21.859375 -2.328125 C 20.203125 -0.441406 18.050781 0.5 15.40625 0.5 C 13.164062 0.5 11.257812 -0.378906 9.6875 -2.140625 L 9.6875 4.375 C 9.6875 5.414062 9.3125 6.304688 8.5625 7.046875 C 7.820312 7.796875 6.929688 8.171875 5.890625 8.171875 C 4.859375 8.171875 3.96875 7.796875 3.21875 7.046875 C 2.476562 6.304688 2.109375 5.414062 2.109375 4.375 L 2.109375 -16.96875 C 2.109375 -18.09375 2.460938 -19.039062 3.171875 -19.8125 C 3.890625 -20.582031 4.796875 -20.96875 5.890625 -20.96875 C 6.765625 -20.96875 7.550781 -20.707031 8.25 -20.1875 C 8.957031 -19.664062 9.4375 -19 9.6875 -18.1875 C 11.144531 -19.957031 13.050781 -20.84375 15.40625 -20.84375 C 18.050781 -20.84375 20.203125 -19.894531 21.859375 -18 C 23.515625 -16.101562 24.34375 -13.5 24.34375 -10.1875 Z M 16.59375 -10.1875 C 16.59375 -11.363281 16.234375 -12.316406 15.515625 -13.046875 C 14.796875 -13.785156 13.890625 -14.15625 12.796875 -14.15625 C 12.265625 -14.15625 11.695312 -14.023438 11.09375 -13.765625 C 10.488281 -13.515625 10.019531 -13.179688 9.6875 -12.765625 L 9.6875 -7.578125 C 9.988281 -7.179688 10.445312 -6.847656 11.0625 -6.578125 C 11.6875 -6.316406 12.265625 -6.1875 12.796875 -6.1875 C 13.890625 -6.1875 14.796875 -6.550781 15.515625 -7.28125 C 16.234375 -8.007812 16.59375 -8.976562 16.59375 -10.1875 Z M 16.59375 -10.1875 "/></g></g></g></g></g><path fill="#ffffff" d="M 95.167969 161.671875 C 95.234375 161.671875 95.300781 161.667969 95.359375 161.660156 C 96.003906 161.570312 96.519531 161.039062 96.886719 160.078125 C 97.800781 157.699219 97.644531 152.699219 96.246094 151.035156 C 95.734375 150.425781 95.183594 150.382812 94.820312 150.460938 C 92.976562 150.820312 92.671875 155.941406 93.121094 158.609375 C 93.558594 161.199219 94.523438 161.671875 95.167969 161.671875 Z M 95.167969 161.671875 " fill-opacity="1" fill-rule="nonzero"/><path fill="#ffffff" d="M 112.863281 157.636719 C 117.5625 157.636719 121.382812 153.816406 121.382812 149.121094 C 121.382812 144.425781 117.5625 140.601562 112.863281 140.601562 C 108.167969 140.601562 104.34375 144.421875 104.34375 149.121094 C 104.34375 153.820312 108.167969 157.636719 112.863281 157.636719 Z M 109.09375 149.054688 C 109.09375 146.996094 110.765625 145.324219 112.824219 145.324219 C 114.878906 145.324219 116.554688 146.996094 116.554688 149.054688 C 116.554688 151.113281 114.878906 152.785156 112.824219 152.785156 C 110.765625 152.785156 109.09375 151.113281 109.09375 149.054688 Z M 109.09375 149.054688 " fill-opacity="1" fill-rule="nonzero"/><path fill="#ffffff" d="M 77.542969 157.640625 C 82.242188 157.640625 86.066406 153.816406 86.066406 149.117188 C 86.066406 144.421875 82.242188 140.597656 77.542969 140.597656 C 72.847656 140.597656 69.023438 144.421875 69.023438 149.117188 C 69.023438 153.816406 72.847656 157.640625 77.542969 157.640625 Z M 73.714844 149.035156 C 73.714844 146.976562 75.390625 145.300781 77.449219 145.300781 C 79.503906 145.300781 81.179688 146.976562 81.179688 149.035156 C 81.179688 151.089844 79.503906 152.765625 77.449219 152.765625 C 75.390625 152.765625 73.714844 151.089844 73.714844 149.035156 Z M 73.714844 149.035156 " fill-opacity="1" fill-rule="nonzero"/><path fill="#ffffff" d="M 112.703125 166.390625 C 112.652344 166.359375 112.589844 166.339844 112.527344 166.339844 C 102.640625 165.824219 91.746094 165.828125 78.226562 166.34375 C 77.6875 166.363281 76.929688 166.640625 76.394531 167.835938 C 75.238281 170.398438 75.738281 175.660156 76.6875 176.8125 C 77.414062 177.695312 78.863281 178.179688 80.78125 178.179688 L 80.910156 178.179688 L 112.925781 177.816406 C 113.023438 177.816406 113.121094 177.773438 113.195312 177.707031 C 114.792969 176.175781 115.214844 173.109375 114.921875 170.746094 C 114.664062 168.632812 113.855469 167.046875 112.707031 166.390625 Z M 110.359375 173.847656 L 80.230469 173.738281 C 80.1875 173.738281 80.035156 173.589844 79.921875 173.128906 C 79.664062 172.054688 79.90625 170.6875 80.269531 170.351562 L 110.277344 170.34375 C 110.722656 170.667969 110.757812 172.21875 110.359375 173.847656 Z M 110.359375 173.847656 " fill-opacity="1" fill-rule="nonzero"/><g clip-path="url(#923b909691)"><path fill="#ffffff" d="M 54.40625 172.253906 C 54.832031 174.40625 54.746094 176.59375 54.660156 178.90625 C 54.636719 179.523438 54.613281 180.148438 54.597656 180.777344 C 54.519531 184.175781 55.753906 187.429688 57.976562 189.703125 C 60.015625 191.789062 62.785156 192.933594 65.773438 192.933594 L 65.785156 192.933594 L 124.550781 192.878906 C 130.394531 192.875 134.949219 188.71875 135.628906 182.773438 C 135.808594 181.234375 135.746094 179.707031 135.691406 178.226562 C 135.613281 176.15625 135.539062 174.199219 136.046875 172.207031 C 136.359375 172.136719 136.691406 172.070312 137.039062 171.996094 C 139.917969 171.402344 143.863281 170.582031 144.582031 167.285156 C 145.867188 161.371094 145.871094 154.171875 144.589844 147.535156 C 143.941406 144.15625 139.867188 143.402344 136.894531 142.847656 C 136.597656 142.792969 136.3125 142.742188 136.039062 142.6875 C 135.558594 140.296875 135.625 137.785156 135.695312 135.351562 C 135.71875 134.515625 135.738281 133.671875 135.742188 132.835938 C 135.757812 126.402344 130.894531 121.640625 124.179688 121.503906 C 123 121.480469 121.839844 121.496094 120.6875 121.507812 C 118.492188 121.535156 116.417969 121.558594 114.277344 121.339844 C 111.046875 114.109375 104.453125 112.875 98.023438 111.761719 L 97.96875 111.378906 C 97.691406 109.527344 97.277344 106.742188 98.113281 105.527344 C 102.710938 103.101562 104.75 99.449219 103.851562 95.238281 C 102.980469 91.171875 99.210938 88.257812 94.917969 88.390625 C 90.535156 88.492188 86.996094 91.628906 86.511719 95.847656 C 85.945312 100.753906 88.152344 102.351562 90.097656 103.765625 C 92.210938 105.292969 94.035156 106.617188 92.605469 111.875 C 85.667969 113 79.675781 114.050781 76.21875 121.234375 C 74.261719 121.722656 72.164062 121.632812 69.945312 121.535156 C 68.261719 121.460938 66.519531 121.386719 64.847656 121.589844 C 54.910156 122.8125 54.828125 130.53125 54.761719 136.730469 C 54.738281 138.964844 54.714844 141.078125 54.238281 142.632812 C 53.871094 142.714844 53.476562 142.789062 53.0625 142.867188 C 50.246094 143.40625 46.390625 144.140625 45.726562 147.425781 C 44.296875 154.527344 44.914062 161.980469 45.683594 166.980469 C 46.269531 170.789062 51.328125 171.707031 54.402344 172.253906 Z M 54.730469 154.054688 C 54.78125 158.476562 54.828125 162.648438 54.484375 167.183594 C 54.476562 167.273438 54.449219 167.304688 54.394531 167.335938 C 53.878906 167.609375 52.253906 167.085938 51.601562 166.710938 C 49.007812 165.226562 49.6875 152.058594 50.1875 149.53125 C 50.507812 147.929688 53.078125 147.363281 54.699219 147.480469 C 54.679688 149.730469 54.703125 151.929688 54.730469 154.058594 Z M 81.921875 121.472656 C 83.640625 118.824219 87.953125 116.988281 93.410156 116.625 C 94.003906 116.585938 94.613281 116.566406 95.226562 116.566406 C 100.402344 116.566406 106.113281 117.992188 108.863281 121.363281 Z M 99.117188 97.054688 C 99.117188 99.1875 97.382812 100.925781 95.25 100.925781 C 93.117188 100.925781 91.378906 99.1875 91.378906 97.054688 C 91.378906 94.921875 93.113281 93.183594 95.25 93.183594 C 97.382812 93.183594 99.117188 94.921875 99.117188 97.054688 Z M 59.589844 181.5 L 59.613281 132.800781 C 59.613281 131.058594 60.210938 129.441406 61.296875 128.25 C 62.398438 127.042969 63.921875 126.375 65.59375 126.375 L 65.597656 126.375 L 124.941406 126.417969 C 128.390625 126.421875 130.894531 129.097656 130.894531 132.789062 L 130.914062 181.484375 C 130.914062 184.855469 128.78125 187.332031 125.339844 187.953125 L 65.589844 187.941406 C 63.917969 187.941406 62.386719 187.269531 61.277344 186.050781 C 60.1875 184.851562 59.589844 183.234375 59.589844 181.5 Z M 140.074219 164.945312 C 140.027344 165.464844 139.777344 165.917969 139.324219 166.289062 C 138.472656 166.996094 137.035156 167.292969 135.929688 167.285156 L 135.832031 147.542969 C 137.011719 147.457031 138.425781 147.839844 139.265625 148.484375 C 139.757812 148.859375 140.03125 149.292969 140.082031 149.773438 C 140.585938 154.496094 140.585938 159.457031 140.078125 164.945312 Z M 140.074219 164.945312 " fill-opacity="1" fill-rule="nonzero"/></g></g></g></g></svg>